<svg width="55" height="57" viewBox="0 0 55 57" fill="none" xmlns="http://www.w3.org/2000/svg">
<path d="M27.2433 56.7568C26.4144 56.757 25.6 56.5557 24.8821 56.173L17.3685 52.0641C16.2472 51.4844 16.7936 51.2796 17.1645 51.1601C18.3571 50.8197 19.4989 50.343 20.5636 49.7411C20.6527 49.703 20.7508 49.6866 20.8487 49.6933C20.9467 49.7001 21.0411 49.7298 21.1231 49.7796L26.8965 52.9479C27.004 53.0005 27.1238 53.0279 27.2454 53.0279C27.3671 53.0279 27.4868 53.0005 27.5944 52.9479L50.1087 40.9437C50.2141 40.8854 50.3012 40.8028 50.3616 40.704C50.422 40.6052 50.4536 40.4936 50.4532 40.3802V16.3677C50.4533 16.2524 50.4212 16.1391 50.3601 16.0386C50.299 15.9382 50.2109 15.8539 50.1043 15.794L27.59 3.79994C27.4838 3.74471 27.364 3.71569 27.2422 3.71569C27.1203 3.71569 27.0005 3.74471 26.8943 3.79994L4.39317 15.7981C4.28584 15.8567 4.19671 15.94 4.13443 16.0398C4.07215 16.1395 4.03883 16.2525 4.03768 16.3677V40.37C4.03798 40.4832 4.07086 40.5943 4.13294 40.6919C4.19502 40.7895 4.28407 40.8701 4.39097 40.9255L10.566 44.2174C13.9124 45.762 15.9619 43.9417 15.9619 42.1133V18.415C15.9619 18.2537 16.0313 18.099 16.1548 17.985C16.2782 17.871 16.4457 17.8069 16.6203 17.8069H19.4729C19.6475 17.8069 19.815 17.871 19.9384 17.985C20.0619 18.099 20.1313 18.2537 20.1313 18.415V42.1153C20.1313 46.2404 17.6999 48.6019 13.4647 48.6019C11.6376 48.6313 9.83921 48.18 8.27941 47.3005L2.36117 44.1647C1.6427 43.7782 1.04655 43.2244 0.632233 42.5585C0.217914 41.8927 -7.95387e-05 41.1381 1.5606e-05 40.37V16.3677C-0.00211993 15.5985 0.214951 14.8423 0.629416 14.1751C1.04388 13.508 1.64114 12.9533 2.36117 12.567L24.8777 0.558679C25.603 0.192122 26.4165 0 27.2433 0C28.07 0 28.8835 0.192122 29.6088 0.558679L52.1231 12.567C52.8415 12.9527 53.4378 13.5057 53.8525 14.1709C54.2672 14.836 54.4858 15.59 54.4865 16.3575V40.37C54.4853 41.1381 54.2665 41.8924 53.8519 42.5581C53.4373 43.2238 52.8413 43.7777 52.1231 44.1647L29.6088 56.173C28.8896 56.5563 28.0736 56.7577 27.2433 56.7568V56.7568Z" fill="white"/>
<path d="M22.972 32.3383C22.972 32.177 23.0414 32.0223 23.1649 31.9083C23.2883 31.7942 23.4558 31.7301 23.6304 31.7301H26.5423C26.6979 31.7306 26.8483 31.782 26.9668 31.8751C27.0853 31.9682 27.1642 32.0971 27.1896 32.2389C27.6285 34.9775 28.9451 36.3579 34.8985 36.3579C39.6406 36.3579 41.6616 35.3667 41.6616 33.0416C41.6616 31.7018 41.0889 30.7065 33.7179 30.0396C27.5561 29.4761 23.7467 28.2152 23.7467 23.6665C23.7467 19.4705 27.5759 16.9671 33.9944 16.9671C41.2073 16.9671 44.7776 19.28 45.2296 24.2422C45.2366 24.325 45.225 24.4083 45.1957 24.4869C45.1664 24.5654 45.12 24.6376 45.0594 24.699C44.9987 24.7603 44.9251 24.8096 44.843 24.8436C44.761 24.8776 44.6722 24.8958 44.5823 24.8969H41.6506C41.5035 24.895 41.3614 24.8477 41.2468 24.7625C41.1323 24.6772 41.052 24.559 41.0186 24.4267C40.3186 21.5462 38.6048 20.6259 33.9966 20.6259C28.8179 20.6259 28.2166 22.2922 28.2166 23.5408C28.2166 25.053 28.9276 25.4949 35.9189 26.3483C42.8378 27.1936 46.125 28.3896 46.125 32.8815C46.125 37.414 42.0346 40.0086 34.9007 40.0086C25.037 40.0208 22.972 35.843 22.972 32.3383V32.3383Z" fill="white"/>
</svg>
