<svg width="48" height="49" viewBox="0 0 48 49" fill="none" xmlns="http://www.w3.org/2000/svg">
<rect y="0.0737305" width="48" height="48" rx="8" fill="#55ACEE"/>
<path fill-rule="evenodd" clip-rule="evenodd" d="M20.7863 20.285H25.4287V22.5975C26.0975 21.2675 27.8125 20.0725 30.3888 20.0725C35.3275 20.0725 36.5 22.72 36.5 27.5775V36.5737H31.5V28.6837C31.5 25.9175 30.8313 24.3575 29.1287 24.3575C26.7675 24.3575 25.7863 26.0387 25.7863 28.6825V36.5737H20.7863V20.285ZM12.2125 36.3612H17.2125V20.0725H12.2125V36.3612ZM17.9288 14.7612C17.9289 15.1803 17.8458 15.5953 17.6842 15.982C17.5226 16.3687 17.2858 16.7194 16.9875 17.0137C16.383 17.6145 15.5648 17.9508 14.7125 17.9487C13.8617 17.9482 13.0454 17.6127 12.44 17.015C12.1428 16.7196 11.9067 16.3685 11.7454 15.9818C11.5841 15.595 11.5007 15.1803 11.5 14.7612C11.5 13.915 11.8375 13.105 12.4413 12.5075C13.0461 11.9089 13.8628 11.5734 14.7138 11.5737C15.5663 11.5737 16.3837 11.91 16.9875 12.5075C17.59 13.105 17.9288 13.915 17.9288 14.7612Z" fill="white"/>
</svg>
