<svg width="66" height="36" viewBox="0 0 66 36" fill="none" xmlns="http://www.w3.org/2000/svg">
<path d="M0.486328 31.8025H2.68796V22.6924L6.09636 30.6343C6.49852 31.5956 7.04902 31.9356 8.12857 31.9356C9.20828 31.9356 9.7375 31.5956 10.1398 30.6343L13.5481 22.6924V31.8025H15.7499V22.7073C15.7499 21.82 15.411 21.391 14.7125 21.1693C13.0401 20.6221 11.918 21.0953 11.4099 22.2785L8.0651 30.1165L4.82613 22.2785C4.33925 21.0953 3.19608 20.6221 1.52369 21.1693C0.825028 21.391 0.486328 21.82 0.486328 22.7073V31.8025Z" fill="white"/>
<path d="M17.5801 24.387H19.7811V29.406C19.7605 29.6787 19.8645 30.3186 21.0706 30.3385C21.6859 30.3486 25.8196 30.3385 25.8582 30.3385V24.3625H28.0643C28.0744 24.3625 28.0621 32.5121 28.0622 32.5468C28.0744 34.5567 25.6823 34.9932 24.5797 35.027H17.6279V33.475C17.6401 33.475 24.5746 33.4764 24.5921 33.4746C26.009 33.3178 25.8417 32.5798 25.8415 32.3314V31.7263H21.162C18.9849 31.7053 17.5984 30.7097 17.5813 29.5643C17.5797 29.4581 17.6283 24.4371 17.5801 24.387Z" fill="white"/>
<path d="M29.7617 31.8012H36.0914C36.8323 31.8012 37.5522 31.6386 38.1238 31.3575C39.0763 30.8992 39.5422 30.2782 39.5422 29.4645V27.7787C39.5422 27.1131 39.0129 26.4919 37.9755 26.078C37.425 25.856 36.7476 25.7378 36.0914 25.7378H33.4239C32.535 25.7378 32.1115 25.4568 32.0057 24.8357C31.9845 24.7617 31.9845 24.7024 31.9845 24.6286V23.5787C31.9845 23.5195 31.9845 23.4602 32.0057 23.3863C32.1115 22.9132 32.3445 22.7799 33.1276 22.706C33.1912 22.706 33.2758 22.6911 33.3394 22.6911H39.6268V21.1533H33.4452C32.5561 21.1533 32.0902 21.2124 31.667 21.3454C30.3544 21.7744 29.7828 22.4547 29.7828 23.6378V24.9836C29.7828 26.0189 30.9049 26.9062 32.7889 27.1131C33.0008 27.1279 33.2123 27.1426 33.4239 27.1426H35.7103C35.7951 27.1426 35.8798 27.1426 35.9432 27.1575C36.6419 27.2168 36.9381 27.3497 37.15 27.616C37.2769 27.7489 37.3192 27.8822 37.3192 28.0301V29.3758C37.3192 29.5386 37.2135 29.7457 37.0019 29.923C36.8113 30.1005 36.4937 30.2189 36.0703 30.2485C35.9856 30.2485 35.9222 30.2633 35.8375 30.2633H29.7617V31.8012Z" fill="#F59E0B"/>
<path d="M53.2744 29.1245C53.2744 30.7068 54.3963 31.5943 56.6616 31.7718C56.8732 31.7865 57.0851 31.8012 57.2966 31.8012H63.0338V30.2633H57.2543C55.963 30.2633 55.4761 29.923 55.4761 29.1097V21.1533H53.2744V29.1245Z" fill="#F59E0B"/>
<path d="M40.9453 29.2056V23.7224C40.9453 22.3294 41.8788 21.4845 43.7242 21.2177C43.9152 21.1883 44.1275 21.1733 44.3183 21.1733H48.4973C48.7094 21.1733 48.9006 21.1883 49.1126 21.2177C50.9582 21.4845 51.8916 22.3294 51.8916 23.7224V29.2056C51.8916 30.3357 51.4952 30.9406 50.5816 31.3348L52.7503 33.386H50.1939L48.4394 31.7264L46.673 31.8437H44.3183C43.9152 31.8437 43.4911 31.7842 43.0242 31.6509C41.6242 31.2509 40.9453 30.4802 40.9453 29.2056ZM43.3217 29.0723C43.3217 29.1465 43.3428 29.2205 43.364 29.3094C43.4912 29.9466 44.064 30.3023 44.9337 30.3023H46.934L45.0966 28.5642H47.653L49.2555 30.0801C49.5507 29.9152 49.7451 29.663 49.813 29.339C49.8341 29.265 49.8341 29.1908 49.8341 29.1168V23.8558C49.8341 23.7966 49.8341 23.7224 49.813 23.6482C49.6856 23.0555 49.1128 22.7147 48.2644 22.7147H44.9337C43.9581 22.7147 43.3217 23.1593 43.3217 23.8558V29.0723Z" fill="#F59E0B"/>
<path d="M63.7931 20.7124C62.4398 20.674 61.406 20.8058 60.5222 21.1964C60.271 21.3074 59.8705 21.3103 59.8295 21.6401C59.9676 21.7917 59.989 22.0181 60.0987 22.2046C60.3098 22.5624 60.666 23.0419 60.9839 23.2934C61.3312 23.5681 61.6892 23.862 62.0616 24.0998C62.7238 24.5231 63.4633 24.7647 64.101 25.1887C64.4768 25.4386 64.8502 25.7533 65.2169 26.0354C65.3982 26.1748 65.5201 26.3916 65.7556 26.4789C65.7556 26.4656 65.7556 26.4522 65.7556 26.4387C65.6318 26.2736 65.6 26.0465 65.4863 25.874C65.3196 25.6994 65.1528 25.5246 64.986 25.3498C64.4969 24.6695 63.8759 24.072 63.2159 23.5756C62.6895 23.1797 61.5114 22.6449 61.2918 22.003C61.2789 21.9895 61.2662 21.9761 61.2532 21.9626C61.6264 21.9186 62.0634 21.777 62.4079 21.6804C62.9865 21.5178 63.5036 21.5598 64.101 21.3981C64.3704 21.3175 64.6397 21.2366 64.9092 21.1561C64.9092 21.1022 64.9092 21.0487 64.9092 20.9948C64.6071 20.67 64.3918 20.2403 64.0625 19.9464C63.2008 19.1775 62.2603 18.4093 61.2918 17.7688C60.7547 17.4135 60.0908 17.1826 59.5216 16.8816C59.3301 16.7803 58.9938 16.7277 58.8672 16.559C58.5682 16.1595 58.4054 15.6532 58.1748 15.1879C57.6917 14.2132 57.2173 13.1486 56.7894 12.1232C56.4974 11.4239 56.3068 10.7343 55.9428 10.1069C54.1954 7.09656 52.3146 5.27955 49.4009 3.4936C48.781 3.11379 48.0345 2.96378 47.2457 2.76782C46.8226 2.74099 46.3991 2.71397 45.9758 2.68713C45.7175 2.57397 45.4486 2.24273 45.2062 2.08222C44.241 1.44327 41.7652 0.0534551 41.0503 1.88063C40.5989 3.03396 41.7249 4.15939 42.1276 4.74377C42.4103 5.15376 42.7722 5.61341 42.9742 6.07446C43.1071 6.37745 43.13 6.68131 43.2437 7.002C43.5235 7.79182 43.7668 8.65111 44.1287 9.38111C44.3116 9.75041 44.5132 10.1395 44.7445 10.4699C44.8863 10.6725 45.1292 10.7618 45.1676 11.0748C44.93 11.4232 44.9165 11.9641 44.7829 12.4055C44.1815 14.3927 44.4083 16.8626 45.2832 18.3333C45.5517 18.7848 46.1839 19.7531 47.0533 19.3818C47.8139 19.0571 47.644 18.0513 47.8615 17.1639C47.9107 16.9626 47.8805 16.8147 47.9769 16.68C47.9769 16.6933 47.9769 16.7068 47.9769 16.7203C48.2078 17.2042 48.4388 17.6881 48.6697 18.1718C49.1823 19.037 50.0921 19.9412 50.8631 20.5513C51.2629 20.8676 51.5777 21.4147 52.0946 21.5997C52.0946 21.5862 52.0946 21.5729 52.0946 21.5593C52.0816 21.5593 52.0689 21.5593 52.056 21.5593C51.9559 21.3956 51.7992 21.3279 51.6713 21.1964C51.3701 20.887 51.0353 20.5024 50.7861 20.148C50.0849 19.1504 49.4652 18.0585 48.9006 16.9219C48.6309 16.3793 48.3966 15.7805 48.1693 15.2282C48.0816 15.0153 48.0827 14.6933 47.9001 14.583C47.6512 14.9877 47.2844 15.3149 47.0919 15.7928C46.784 16.5567 46.7442 17.4882 46.6302 18.4542C46.5627 18.4796 46.5927 18.4621 46.5531 18.4945C46.0171 18.359 45.8287 17.7809 45.6297 17.2849C45.1258 16.0305 45.0322 14.0107 45.4756 12.5669C45.5902 12.1934 46.1087 11.0167 45.8988 10.6716C45.7987 10.3272 45.4682 10.1281 45.2832 9.86497C45.0543 9.5397 44.8258 9.11146 44.6674 8.73585C44.2551 7.75779 44.0625 6.65989 43.6284 5.67131C43.421 5.19867 43.07 4.72043 42.7818 4.30027C42.4628 3.83484 42.1055 3.49202 41.8583 2.92906C41.7703 2.72906 41.6508 2.40887 41.7813 2.20326C41.8228 2.06449 41.8813 2.0066 42.0122 1.96133C42.2355 1.78099 42.8571 2.02133 43.0896 2.12257C43.7068 2.39116 44.2218 2.64694 44.7445 3.00976C44.9955 3.18414 45.2492 3.52132 45.5525 3.61467C45.6679 3.61467 45.7835 3.61467 45.8988 3.61467C46.4406 3.74518 47.0475 3.65519 47.5536 3.81623C48.4482 4.10115 49.2499 4.54431 49.978 5.02605C52.1961 6.49359 54.0096 8.5827 55.2502 11.0748C55.4497 11.476 55.5361 11.859 55.7119 12.2846C56.0666 13.1428 56.5133 14.026 56.8662 14.8653C57.2183 15.7026 57.5615 16.5477 58.0592 17.2446C58.321 17.6109 59.3317 17.8074 59.791 18.0107C60.1129 18.1533 60.6405 18.3019 60.9455 18.4945C61.528 18.8628 62.0924 19.3011 62.6388 19.7044C62.9119 19.906 63.7513 20.3481 63.7931 20.7124Z" fill="white"/>
</svg>
