<svg width="56" height="52" viewBox="0 0 56 52" fill="none" xmlns="http://www.w3.org/2000/svg">
<path d="M56 26.0057C56 22.1375 51.3543 18.4717 44.2316 16.1984C45.8753 8.62873 45.1447 2.6063 41.9258 0.678172C41.1839 0.225894 40.3163 0.0116577 39.3689 0.0116577V2.66581C39.894 2.66581 40.3163 2.77293 40.6702 2.97527C42.2226 3.90362 42.896 7.43853 42.371 11.9851C42.2454 13.1039 42.04 14.2822 41.7888 15.4843C39.5516 14.913 37.1088 14.4726 34.5406 14.187C32.9996 11.9851 31.4016 9.98556 29.7921 8.23596C33.5133 4.62965 37.0061 2.65391 39.3804 2.65391V-0.000244141C36.2413 -0.000244141 32.1321 2.33256 27.9772 6.37925C23.8223 2.35636 19.713 0.0473642 16.574 0.0473642V2.70152C18.9368 2.70152 22.4411 4.66535 26.1623 8.24787C24.5642 9.99747 22.9662 11.9851 21.448 14.187C18.8683 14.4726 16.4256 14.913 14.1883 15.4962C13.9258 14.306 13.7318 13.1515 13.5948 12.0446C13.0583 7.49804 13.7203 3.96313 15.2613 3.02287C15.6038 2.80864 16.0489 2.71342 16.574 2.71342V0.059266C15.6152 0.059266 14.7477 0.273503 13.9943 0.72578C10.7868 2.65391 10.0677 8.66444 11.7228 16.2103C4.62291 18.4955 0 22.1494 0 26.0057C0 29.8739 4.64574 33.5397 11.7684 35.813C10.1247 43.3827 10.8553 49.4051 14.0742 51.3332C14.8161 51.7855 15.6837 51.9998 16.6425 51.9998C19.7815 51.9998 23.8907 49.667 28.0457 45.6203C32.2006 49.6432 36.3098 51.9521 39.4488 51.9521C40.4077 51.9521 41.2752 51.7379 42.0285 51.2856C45.236 49.3575 45.9552 43.347 44.3 35.8011C51.3771 33.5278 56 29.862 56 26.0057ZM41.1382 18.067C40.7159 19.6024 40.1908 21.1854 39.5972 22.7684C39.1292 21.8162 38.6384 20.864 38.1019 19.9119C37.5768 18.9597 37.0175 18.0313 36.4582 17.1268C38.0791 17.3767 39.6429 17.6862 41.1382 18.067ZM35.9103 30.7427C35.02 32.3495 34.1068 33.873 33.1594 35.2893C31.4586 35.444 29.735 35.5273 28 35.5273C26.2764 35.5273 24.5528 35.444 22.8634 35.3012C21.916 33.8849 20.9914 32.3733 20.1011 30.7784C19.2336 29.2193 18.446 27.6363 17.7269 26.0414C18.4346 24.4465 19.2336 22.8517 20.0897 21.2925C20.98 19.6857 21.8932 18.1623 22.8406 16.7459C24.5414 16.5912 26.265 16.5079 28 16.5079C29.7236 16.5079 31.4472 16.5912 33.1366 16.734C34.084 18.1504 35.0086 19.6619 35.8989 21.2568C36.7664 22.816 37.554 24.3989 38.2731 25.9938C37.554 27.5887 36.7664 29.1835 35.9103 30.7427ZM39.5972 29.1954C40.2136 30.7903 40.7387 32.3852 41.1724 33.9325C39.6771 34.3133 38.1019 34.6347 36.4696 34.8846C37.0289 33.9682 37.5883 33.0279 38.1133 32.0638C38.6384 31.1117 39.1292 30.1476 39.5972 29.1954ZM28.0228 41.8949C26.9613 40.7523 25.8997 39.4788 24.8496 38.0863C25.8769 38.1339 26.927 38.1696 27.9886 38.1696C29.0616 38.1696 30.1231 38.1458 31.1618 38.0863C30.1345 39.4788 29.073 40.7523 28.0228 41.8949ZM19.5304 34.8846C17.9095 34.6347 16.3457 34.3252 14.8504 33.9444C15.2727 32.409 15.7978 30.826 16.3914 29.2431C16.8594 30.1952 17.3502 31.1474 17.8867 32.0995C18.4232 33.0517 18.9711 33.9801 19.5304 34.8846ZM27.9658 10.1165C29.0273 11.2591 30.0889 12.5326 31.139 13.9251C30.1117 13.8775 29.0616 13.8418 28 13.8418C26.927 13.8418 25.8655 13.8656 24.8267 13.9251C25.8541 12.5326 26.9156 11.2591 27.9658 10.1165ZM19.519 17.1268C18.9596 18.0432 18.4003 18.9835 17.8753 19.9476C17.3502 20.8997 16.8594 21.8519 16.3914 22.8041C15.775 21.2092 15.2499 19.6143 14.8161 18.067C16.3115 17.6981 17.8867 17.3767 19.519 17.1268ZM9.18875 32.0281C5.14798 30.2309 2.53404 27.8743 2.53404 26.0057C2.53404 24.1371 5.14798 21.7686 9.18875 19.9833C10.1704 19.5429 11.2434 19.1501 12.3506 18.7812C13.0012 21.114 13.8573 23.542 14.9189 26.0295C13.8687 28.5051 13.0241 30.9212 12.3848 33.2421C11.2548 32.8732 10.1818 32.4685 9.18875 32.0281ZM15.3298 49.0361C13.7774 48.1078 13.104 44.5729 13.629 40.0263C13.7546 38.9075 13.9601 37.7292 14.2112 36.5271C16.4484 37.0984 18.8912 37.5388 21.4594 37.8244C23.0004 40.0263 24.5985 42.0258 26.2079 43.7754C22.4868 47.3818 18.9939 49.3575 16.6196 49.3575C16.106 49.3456 15.6722 49.2385 15.3298 49.0361ZM42.4052 39.9668C42.9417 44.5134 42.2797 48.0483 40.7387 48.9885C40.3962 49.2028 39.9511 49.298 39.426 49.298C37.0632 49.298 33.5589 47.3342 29.8378 43.7516C31.4358 42.002 33.0338 40.0144 34.552 37.8125C37.1317 37.5269 39.5744 37.0865 41.8117 36.5033C42.0742 37.7054 42.2797 38.8599 42.4052 39.9668ZM46.7998 32.0281C45.8182 32.4685 44.7452 32.8613 43.638 33.2302C42.9874 30.8974 42.1313 28.4694 41.0697 25.9819C42.1199 23.5063 42.9645 21.0902 43.6038 18.7693C44.7338 19.1382 45.8068 19.5429 46.8113 19.9833C50.852 21.7805 53.466 24.1371 53.466 26.0057C53.4545 27.8743 50.8406 30.2428 46.7998 32.0281Z" fill="white"/>
<path d="M27.9884 31.4446C30.8694 31.4446 33.2049 29.0094 33.2049 26.0054C33.2049 23.0014 30.8694 20.5662 27.9884 20.5662C25.1075 20.5662 22.772 23.0014 22.772 26.0054C22.772 29.0094 25.1075 31.4446 27.9884 31.4446Z" fill="white"/>
</svg>
